<svg aria-hidden="true" style="position: absolute; width: 0; height: 0; overflow: hidden;" version="1.1" xmlns="http://www.w3.org/2000/svg" xmlns:xlink="http://www.w3.org/1999/xlink">
<defs>
<symbol id="icon-logo-full-light" viewBox="0 0 151 32">
<path fill="#003edc" style="fill: var(--color1, #003edc)" d="M14.166 6.303c0.291 0 0.573 0.013 0.855 0.035 0.915 0.078 1.795 0.281 2.619 0.584 2.081 0.769 3.846 2.2 5.038 4.046-0.496-3.838-2.803-7.102-6.030-8.87-1.658-0.912-3.56-1.431-5.581-1.431-1.705 0-4.355 0.363-5.816 1.024-2.188 0.8-3.619 2.101-5.252 3.575l6.765 4.275c1.85-1.997 4.478-3.237 7.401-3.237z"></path>
<path fill="#003edc" style="fill: var(--color1, #003edc)" d="M21.289 15.941h-0.004c-0.205 0.017-0.41 0.030-0.611 0.039h-0.051c-0.85 0.022-1.709-0.065-2.543-0.259-1.081-0.251-2.132-0.679-3.102-1.297-0.641-0.402-1.244-0.886-1.799-1.448-0.158-0.156-0.308-0.32-0.449-0.484-1.038-1.193-1.752-2.563-2.149-4.007-1.154 0.553-2.188 1.323-3.051 2.248-0.996 1.068-1.765 2.351-2.235 3.774-0.094 0.29-0.18 0.588-0.252 0.895l-0.205 1.167-0.816 4.677-0.192 1.089 0.709-0.614 1.192-1.037-0.192-2.611c-0.043-0.264-0.064-0.532-0.064-0.808v-0.026l6.914 0.156c-1.124 0.519-3.107 2.265-3.88 3.086l-0.009 0.013c-0.175 0.186-0.342 0.376-0.504 0.575l-0.59 2.395-0.068 0.277h0.004l-0.167 0.674-0.030 0.125-1.671 6.795 6.303-3.411 0.060-0.315 0.239-1.271c0.026-0.121 0.051-0.225 0.077-0.315 0.068-0.259 0.103-0.385 0.145-0.501 0.068-0.216 0.145-0.428 0.218-0.618 1.44-3.791 3.248-4.655 3.128-4.655 0.094-0.078 0.197-0.151 0.299-0.22 0.876-0.618 2.021-1.063 3.261-1.236 0.188-0.026 0.402-0.048 0.624-0.052l0.060-0.004 1.141-1.284 1.508-1.703-0.081 0.017c-0.389 0.082-0.778 0.143-1.167 0.177z"></path>
<path fill="#f5f0ec" style="fill: var(--color2, #f5f0ec)" d="M94.571 19.187c-0.496-0.545-1.094-0.916-1.791-1.141-0.709-0.225-1.632-0.45-2.791-0.67-0.953-0.169-1.688-0.342-2.213-0.493-0.538-0.16-0.991-0.402-1.35-0.743-0.359-0.346-0.538-0.791-0.538-1.344 0-0.726 0.316-1.31 0.961-1.759 0.633-0.445 1.577-0.674 2.833-0.674 1.654 0 3.090 0.415 4.286 1.262l0.859-1.599c-0.615-0.406-1.385-0.735-2.32-0.99-0.949-0.259-1.889-0.389-2.825-0.389-1.816 0-3.226 0.398-4.239 1.184-1.013 0.778-1.513 1.794-1.513 3.017 0 0.99 0.252 1.768 0.756 2.325 0.504 0.566 1.115 0.955 1.833 1.193 0.727 0.233 1.675 0.458 2.859 0.683 0.885 0.151 1.59 0.298 2.124 0.458 0.543 0.16 0.983 0.393 1.329 0.7 0.35 0.311 0.526 0.739 0.526 1.271 0 0.769-0.316 1.366-0.953 1.781s-1.615 0.627-2.944 0.627c-1 0-1.961-0.147-2.876-0.458-0.927-0.311-1.684-0.7-2.295-1.193l-0.889 1.569c0.611 0.523 1.457 0.96 2.53 1.301 1.077 0.35 2.214 0.523 3.393 0.523 1.876 0 3.35-0.389 4.41-1.133 1.060-0.756 1.59-1.777 1.59-3.069 0-0.947-0.244-1.694-0.752-2.239z"></path>
<path fill="#f5f0ec" style="fill: var(--color2, #f5f0ec)" d="M139.611 21.698l1.467 1.011c-0.577 0.951-1.36 1.677-2.351 2.165-1 0.501-2.12 0.748-3.351 0.748-1.444 0-2.73-0.32-3.859-0.951-1.137-0.64-2.021-1.526-2.675-2.676-0.645-1.15-0.97-2.442-0.97-3.881 0-1.426 0.325-2.719 0.97-3.855 0.654-1.141 1.538-2.027 2.675-2.658 1.128-0.635 2.415-0.955 3.859-0.955 1.252 0 2.372 0.255 3.364 0.743 0.991 0.493 1.76 1.215 2.337 2.166l-1.467 1.011c-0.483-0.726-1.093-1.266-1.833-1.643-0.735-0.363-1.537-0.54-2.401-0.54-1.055 0-2.004 0.233-2.833 0.713-0.846 0.48-1.5 1.15-1.974 2.023-0.462 0.886-0.692 1.876-0.692 2.995 0 1.141 0.231 2.144 0.692 3.017 0.474 0.864 1.128 1.534 1.974 2.014 0.829 0.471 1.778 0.718 2.833 0.718 0.864 0 1.667-0.181 2.401-0.536 0.74-0.363 1.351-0.895 1.833-1.629z"></path>
<path fill="#f5f0ec" style="fill: var(--color2, #f5f0ec)" d="M149.964 23.211c-0.273 0.246-0.601 0.428-0.979 0.553-0.38 0.143-0.768 0.203-1.179 0.203-0.816 0-1.436-0.238-1.868-0.691-0.431-0.45-0.653-1.12-0.653-1.997v-8.783h4.427v-1.681h-4.427v-3.22h-1.957v13.793c0 1.361 0.368 2.421 1.103 3.164 0.739 0.752 1.791 1.124 3.153 1.124 0.591 0 1.159-0.087 1.705-0.268 0.539-0.182 1-0.437 1.372-0.765l-0.697-1.431z"></path>
<path fill="#f5f0ec" style="fill: var(--color2, #f5f0ec)" d="M34.983 21.267c-0.235 0.635-0.611 1.124-1.167 1.457-0.543 0.328-1.167 0.488-1.867 0.488-0.722 0-1.286-0.147-1.697-0.463-0.41-0.311-0.624-0.735-0.624-1.271 0-1.115 0.842-1.677 2.53-1.677h2.825v1.465zM37.32 12.835c-1.175-1.059-2.863-1.595-5.060-1.595-1.132 0-2.248 0.151-3.333 0.454-1.077 0.307-2.013 0.735-2.782 1.284l1.474 2.905c0.513-0.406 1.137-0.731 1.867-0.977 0.726-0.233 1.466-0.354 2.222-0.354 1.094 0 1.906 0.242 2.444 0.73 0.555 0.488 0.829 1.189 0.829 2.092h-3.273c-2.068 0-3.607 0.389-4.602 1.145-0.996 0.765-1.487 1.824-1.487 3.155 0 0.83 0.209 1.582 0.637 2.23 0.419 0.661 1.030 1.18 1.825 1.556 0.803 0.363 1.748 0.558 2.846 0.558 2.107 0 3.543-0.67 4.312-2.001v1.789h3.85v-8.191c0-2.131-0.586-3.726-1.769-4.78z"></path>
<path fill="#f5f0ec" style="fill: var(--color2, #f5f0ec)" d="M60.42 17.567h-5.158v-9.825h5.158c1.919 0 3.385 0.424 4.393 1.279 1.013 0.843 1.517 2.053 1.517 3.644 0 1.556-0.504 2.753-1.517 3.618-1.008 0.851-2.474 1.284-4.393 1.284zM50.361 21.514c-0.684 0.718-1.547 1.085-2.581 1.085-1.055 0-1.923-0.367-2.607-1.085-0.697-0.713-1.038-1.673-1.038-2.887 0-1.206 0.342-2.17 1.038-2.892 0.684-0.722 1.551-1.085 2.607-1.085 1.034 0 1.897 0.363 2.581 1.085s1.021 1.686 1.021 2.892c0 1.215-0.337 2.174-1.021 2.887zM63.963 18.83c1.41-0.467 2.504-1.228 3.273-2.282 0.761-1.059 1.15-2.343 1.15-3.881 0-2.088-0.705-3.73-2.107-4.923-1.406-1.193-3.342-1.79-5.807-1.79l-9.166 0.065v6.955c-1.017-1.158-2.431-1.738-4.239-1.738-1.337 0-2.551 0.307-3.624 0.916-1.085 0.597-1.927 1.457-2.551 2.581-0.615 1.124-0.915 2.416-0.915 3.894 0 1.474 0.299 2.775 0.915 3.89 0.624 1.12 1.466 1.984 2.551 2.585 1.073 0.609 2.286 0.912 3.624 0.912 1.927 0 3.406-0.618 4.427-1.867v1.655h3.927v-6.475h5.051c0.539 0 1.051-0.026 1.551-0.082l4.423 6.298h2.248l-4.73-6.713z"></path>
<path fill="#f5f0ec" style="fill: var(--color2, #f5f0ec)" d="M71.232 17.259c0.128-1.465 0.662-2.632 1.624-3.544 0.944-0.903 2.115-1.353 3.517-1.353 1.423 0 2.602 0.45 3.564 1.353 0.949 0.912 1.487 2.079 1.611 3.544h-10.316zM83.437 18.119c0-1.448-0.308-2.74-0.919-3.864-0.611-1.132-1.444-2.019-2.517-2.645-1.068-0.644-2.274-0.964-3.628-0.964-1.346 0-2.555 0.32-3.632 0.964-1.077 0.627-1.931 1.513-2.543 2.654-0.62 1.141-0.927 2.429-0.927 3.856 0 1.439 0.316 2.732 0.97 3.873 0.641 1.124 1.538 2.023 2.688 2.663 1.158 0.653 2.479 0.973 3.974 0.973 1.158 0 2.222-0.203 3.192-0.618 0.97-0.406 1.782-1.003 2.423-1.794l-1.103-1.292c-0.551 0.644-1.214 1.124-1.966 1.452-0.756 0.324-1.59 0.493-2.496 0.493-1.598 0-2.927-0.48-3.983-1.418-1.043-0.942-1.619-2.174-1.739-3.713h12.17l0.034-0.618z"></path>
<path fill="#f5f0ec" style="fill: var(--color2, #f5f0ec)" d="M94.572 19.183c0.508 0.545 0.748 1.288 0.748 2.239 0 1.288-0.526 2.313-1.59 3.069-1.055 0.748-2.53 1.133-4.406 1.133-1.179 0-2.316-0.173-3.393-0.523-1.077-0.341-1.919-0.778-2.53-1.301l0.885-1.569c0.611 0.493 1.372 0.886 2.299 1.197 0.914 0.307 1.876 0.458 2.876 0.458 1.329 0 2.308-0.216 2.94-0.631 0.645-0.415 0.961-1.011 0.961-1.781 0-0.532-0.179-0.96-0.53-1.266-0.346-0.311-0.791-0.545-1.325-0.705-0.538-0.16-1.243-0.311-2.132-0.458-1.179-0.225-2.128-0.449-2.855-0.683-0.718-0.233-1.329-0.627-1.833-1.193-0.504-0.553-0.761-1.331-0.761-2.325 0-1.223 0.509-2.239 1.521-3.017 1.009-0.787 2.423-1.18 4.235-1.18 0.936 0 1.876 0.125 2.825 0.38 0.94 0.259 1.705 0.588 2.32 0.994l-0.855 1.599c-1.201-0.843-2.637-1.258-4.29-1.258-1.252 0-2.201 0.22-2.833 0.67-0.645 0.45-0.961 1.033-0.961 1.759 0 0.553 0.179 1.003 0.538 1.344s0.812 0.584 1.35 0.743c0.526 0.151 1.265 0.32 2.213 0.493 1.158 0.225 2.085 0.445 2.791 0.67 0.697 0.225 1.295 0.597 1.791 1.141z"></path>
<path fill="#f5f0ec" style="fill: var(--color2, #f5f0ec)" d="M109.25 21.119c-0.479 0.882-1.12 1.556-1.953 2.031-0.833 0.471-1.748 0.718-2.769 0.718-1.038 0-1.966-0.247-2.773-0.718-0.821-0.475-1.474-1.15-1.94-2.031-0.474-0.877-0.705-1.876-0.705-3 0-1.115 0.231-2.105 0.705-2.974 0.466-0.873 1.119-1.543 1.94-2.032 0.808-0.484 1.735-0.726 2.773-0.726 1.021 0 1.936 0.242 2.769 0.726 0.833 0.489 1.474 1.159 1.953 2.032 0.47 0.869 0.701 1.859 0.701 2.974 0 1.124-0.231 2.122-0.701 3zM110.972 14.229c-0.62-1.132-1.496-2.014-2.598-2.645-1.107-0.618-2.342-0.938-3.705-0.938-1.218 0-2.316 0.268-3.286 0.791-0.957 0.523-1.735 1.271-2.329 2.239v-2.909h-1.885v20.147h1.97v-8.195c0.598 0.947 1.385 1.673 2.329 2.161 0.961 0.501 2.021 0.748 3.201 0.748 1.385 0 2.628-0.311 3.722-0.938 1.098-0.627 1.961-1.504 2.581-2.645 0.637-1.141 0.944-2.442 0.944-3.925 0-1.448-0.308-2.749-0.944-3.89z"></path>
<path fill="#f5f0ec" style="fill: var(--color2, #f5f0ec)" d="M114.889 17.259c0.137-1.465 0.671-2.632 1.624-3.544 0.944-0.903 2.128-1.353 3.526-1.353 1.414 0 2.607 0.45 3.555 1.353 0.949 0.912 1.487 2.079 1.611 3.544h-10.316zM127.093 18.119c0-1.448-0.308-2.74-0.919-3.864-0.603-1.132-1.444-2.019-2.517-2.645-1.068-0.644-2.282-0.964-3.619-0.964-1.346 0-2.56 0.32-3.645 0.964-1.077 0.627-1.927 1.513-2.538 2.654-0.62 1.141-0.927 2.429-0.927 3.856 0 1.439 0.325 2.732 0.97 3.873 0.641 1.124 1.538 2.023 2.696 2.663 1.15 0.653 2.479 0.973 3.961 0.973 1.171 0 2.235-0.203 3.205-0.618 0.97-0.406 1.769-1.003 2.414-1.794l-1.107-1.292c-0.547 0.644-1.201 1.124-1.961 1.452-0.761 0.324-1.59 0.493-2.483 0.493-1.615 0-2.944-0.48-3.987-1.418-1.051-0.942-1.632-2.174-1.748-3.713h12.17l0.034-0.618z"></path>
<path fill="#f5f0ec" style="fill: var(--color2, #f5f0ec)" d="M150.665 24.637c-0.368 0.333-0.833 0.588-1.372 0.769-0.547 0.181-1.115 0.268-1.705 0.268-1.359 0-2.413-0.376-3.153-1.12-0.735-0.748-1.107-1.802-1.107-3.168v-13.793h1.961v3.22h4.428v1.681h-4.428v8.787c0 0.873 0.223 1.543 0.655 1.993 0.431 0.458 1.055 0.691 1.867 0.691 0.411 0 0.799-0.065 1.18-0.203 0.38-0.125 0.705-0.307 0.979-0.553l0.696 1.426z"></path>
</symbol>
<symbol id="icon-arrow-left-sml" viewBox="0 0 32 32">
<path fill="#1b5b31" style="fill: var(--color3, #1b5b31)" d="M15.991 0l-1.791 1.791 12.955 12.936h-27.154v2.546h27.135l-12.936 12.936 1.791 1.791 16.009-16.009-16.009-15.991z"></path>
</symbol>
<symbol id="icon-arrow-right" viewBox="0 0 36 32">
<path d="M34.94 17.414c0.781-0.781 0.781-2.047 0-2.829l-12.728-12.728c-0.781-0.781-2.047-0.781-2.828 0s-0.781 2.047 0 2.828l11.314 11.314-11.314 11.314c-0.781 0.781-0.781 2.047 0 2.828s2.047 0.781 2.828 0l12.728-12.728zM1.141 18h32.385v-4h-32.385v4z"></path>
</symbol>
<symbol id="icon-arrow-left" viewBox="0 0 36 32">
<path d="M1.060 14.586c-0.781 0.781-0.781 2.047 0 2.829l12.728 12.728c0.781 0.781 2.047 0.781 2.828 0s0.781-2.047 0-2.828l-11.314-11.314 11.314-11.314c0.781-0.781 0.781-2.047 0-2.828s-2.047-0.781-2.828 0l-12.728 12.728zM34.859 14h-32.385v4h32.385v-4z"></path>
</symbol>
<symbol id="icon-arrow-down" viewBox="0 0 30 32">
<path fill="#1b5b31" style="fill: var(--color3, #1b5b31)" d="M30.118 15.991l-1.686-1.686-12.175 12.193v-25.557h-2.396v25.539l-12.175-12.175-1.686 1.686 15.068 15.068 15.050-15.068z"></path>
</symbol>
<symbol id="icon-arrow-down-sml" viewBox="0 0 32 32">
<path d="M5.68 12.838c-0.463-0.463-0.463-1.213 0-1.676 0.421-0.421 1.079-0.459 1.543-0.115l0.133 0.115 8.643 8.643 8.643-8.643c0.421-0.421 1.079-0.459 1.543-0.115l0.133 0.115c0.421 0.421 0.459 1.079 0.115 1.543l-0.115 0.133-9.482 9.482c-0.421 0.421-1.079 0.459-1.543 0.115l-0.133-0.115-9.482-9.482z"></path>
</symbol>
<symbol id="icon-search" viewBox="0 0 32 32">
<path d="M13.333 3c-5.707 0-10.333 4.626-10.333 10.333s4.626 10.333 10.333 10.333c2.493 0 4.78-0.883 6.566-2.354l7.394 7.394 0.112 0.097c0.391 0.291 0.947 0.258 1.302-0.097 0.391-0.391 0.391-1.024 0-1.414l-7.394-7.394c1.471-1.785 2.354-4.072 2.354-6.566 0-5.707-4.626-10.333-10.333-10.333zM13.333 5c4.602 0 8.333 3.731 8.333 8.333s-3.731 8.333-8.333 8.333c-4.602 0-8.333-3.731-8.333-8.333s3.731-8.333 8.333-8.333z"></path>
</symbol>
<symbol id="icon-giarddesign" viewBox="0 0 184 32">
<path d="M7.392 31.2c-2.005 0-3.744-0.352-5.216-1.056-1.451-0.683-2.176-1.739-2.176-3.168 0-0.853 0.352-1.611 1.056-2.272 0.725-0.661 1.643-1.205 2.752-1.632 1.109-0.448 2.368-0.843 3.776-1.184 0.277-0.085 0.501-0.139 0.672-0.16l0.608 0.64c-0.939 0.299-1.707 0.608-2.304 0.928s-1.056 0.683-1.376 1.088c-0.32 0.384-0.48 0.811-0.48 1.28 0 0.661 0.299 1.12 0.896 1.376 0.619 0.277 1.429 0.416 2.432 0.416 0.96 0 1.877-0.107 2.752-0.32 0.896-0.213 1.632-0.523 2.208-0.928s0.864-0.885 0.864-1.44c0-0.363-0.16-0.651-0.48-0.864s-0.768-0.32-1.344-0.32c-0.512 0-1.035 0.053-1.568 0.16-0.533 0.085-1.195 0.224-1.984 0.416-0.683 0.192-1.269 0.331-1.76 0.416-0.491 0.107-0.949 0.16-1.376 0.16-0.875 0-1.685-0.149-2.432-0.448-0.725-0.32-1.312-0.747-1.76-1.28-0.427-0.555-0.64-1.184-0.64-1.888 0-0.981 0.491-1.835 1.472-2.56 1.003-0.747 2.379-1.397 4.128-1.952l1.056 0.928c-0.277 0.085-0.533 0.171-0.768 0.256-0.555 0.192-0.971 0.405-1.248 0.64s-0.416 0.555-0.416 0.96c0 0.341 0.139 0.597 0.416 0.768 0.299 0.171 0.672 0.256 1.12 0.256 0.491 0 1.003-0.032 1.536-0.096 0.533-0.085 1.088-0.192 1.664-0.32 0.917-0.171 1.717-0.299 2.4-0.384s1.429-0.128 2.24-0.128c1.429 0 2.613 0.341 3.552 1.024 0.96 0.683 1.44 1.728 1.44 3.136 0 1.621-0.608 2.997-1.824 4.128-1.195 1.152-2.699 2.005-4.512 2.56-1.813 0.576-3.605 0.864-5.376 0.864zM8.736 18.88c-1.515 0-2.859-0.256-4.032-0.768-1.152-0.533-2.059-1.269-2.72-2.208-0.64-0.939-0.96-1.995-0.96-3.168 0-1.152 0.32-2.187 0.96-3.104 0.661-0.939 1.579-1.664 2.752-2.176 1.173-0.533 2.507-0.8 4-0.8 0.917 0 1.653 0.075 2.208 0.224 0.576 0.149 1.195 0.352 1.856 0.608 0.256 0.107 0.491 0.203 0.704 0.288 0.235 0.064 0.459 0.096 0.672 0.096 0.555 0 0.949-0.192 1.184-0.576s0.352-0.885 0.352-1.504l4.032 1.28c-0.021 0.811-0.352 1.44-0.992 1.888-0.619 0.427-1.44 0.64-2.464 0.64-0.256-0.021-0.544-0.043-0.864-0.064 0.683 0.939 1.024 2.005 1.024 3.2 0 1.173-0.331 2.229-0.992 3.168-0.64 0.939-1.547 1.675-2.72 2.208-1.173 0.512-2.507 0.768-4 0.768zM8.736 15.744c0.533 0 1.003-0.128 1.408-0.384s0.715-0.608 0.928-1.056c0.213-0.469 0.32-0.992 0.32-1.568 0-0.853-0.245-1.557-0.736-2.112-0.469-0.555-1.109-0.832-1.92-0.832-0.533 0-1.003 0.128-1.408 0.384s-0.725 0.608-0.96 1.056c-0.213 0.448-0.32 0.949-0.32 1.504 0 0.875 0.245 1.6 0.736 2.176 0.512 0.555 1.163 0.832 1.952 0.832z"></path>
<path d="M20.9 7.104h5.056v13.248c0 1.515 0.075 2.901 0.224 4.16h-5.28v-17.408zM20.836 0.8h5.152v4.448h-5.152v-4.448z"></path>
<path d="M44.292 24.96c-1.365 0-2.432-0.395-3.2-1.184s-1.152-1.941-1.152-3.456v-6.912c0-1.024-0.245-1.792-0.736-2.304-0.469-0.533-1.195-0.8-2.176-0.8-1.024 0-2.016 0.299-2.976 0.896s-1.792 1.472-2.496 2.624l-3.456-2.688c1.216-1.472 2.624-2.581 4.224-3.328 1.621-0.768 3.371-1.152 5.248-1.152 1.749 0 3.168 0.277 4.256 0.832 1.088 0.533 1.888 1.301 2.4 2.304 0.512 0.981 0.768 2.144 0.768 3.488v7.2c0 0.021 0 0.043 0 0.064 0 0 0 0.011 0 0.032 0.021 0.363 0.107 0.629 0.256 0.8s0.363 0.256 0.64 0.256c0.235 0 0.459-0.011 0.672-0.032 0.235-0.043 0.48-0.107 0.736-0.192l-0.64 3.104c-0.363 0.149-0.747 0.256-1.152 0.32-0.405 0.085-0.811 0.128-1.216 0.128zM33.86 24.96c-1.749 0-3.136-0.448-4.16-1.344-1.003-0.917-1.504-2.091-1.504-3.52 0-1.259 0.469-2.379 1.408-3.36 0.939-1.003 2.336-1.813 4.192-2.432s4.139-1.035 6.848-1.248v3.2c-1.643 0.149-2.997 0.363-4.064 0.64-1.045 0.277-1.835 0.629-2.368 1.056-0.512 0.405-0.768 0.896-0.768 1.472 0 0.469 0.171 0.853 0.512 1.152 0.363 0.277 0.853 0.416 1.472 0.416 0.832 0 1.589-0.181 2.272-0.544s1.227-0.875 1.632-1.536c0.405-0.661 0.608-1.44 0.608-2.336l0.992 0.288c0 1.365-0.245 2.667-0.736 3.904-0.491 1.216-1.269 2.219-2.336 3.008-1.045 0.789-2.379 1.184-4 1.184z"></path>
<path d="M48.682 7.104h5.088v4.16c0.683-1.472 1.493-2.603 2.432-3.392 0.939-0.811 1.909-1.216 2.912-1.216 0.597 0 1.131 0.096 1.6 0.288 0.469 0.171 0.939 0.416 1.408 0.736l-2.048 4.448c-0.448-0.299-0.853-0.512-1.216-0.64-0.363-0.149-0.779-0.224-1.248-0.224-0.683 0-1.312 0.203-1.888 0.608-0.576 0.384-1.045 0.971-1.408 1.76s-0.544 1.739-0.544 2.848v3.872c0 1.515 0.075 2.901 0.224 4.16h-5.312v-17.408z"></path>
<path d="M69.762 24.96c-1.664 0-3.115-0.373-4.352-1.12-1.237-0.768-2.197-1.835-2.88-3.2-0.661-1.387-0.992-2.997-0.992-4.832s0.331-3.435 0.992-4.8c0.683-1.387 1.643-2.453 2.88-3.2 1.237-0.768 2.688-1.152 4.352-1.152 1.173 0 2.272 0.299 3.296 0.896s1.856 1.419 2.496 2.464v-8.384h4.446v18.72c0 1.515 0.085 2.901 0.256 4.16h-4.702v-3.040c-0.619 1.088-1.44 1.941-2.464 2.56-1.003 0.619-2.112 0.928-3.328 0.928zM66.882 15.808c0 1.045 0.181 1.973 0.544 2.784 0.363 0.789 0.864 1.408 1.504 1.856 0.64 0.427 1.397 0.64 2.272 0.64 0.789 0 1.515-0.224 2.176-0.672s1.184-1.035 1.568-1.76c0.405-0.747 0.608-1.536 0.608-2.368v-0.96c0-0.875-0.203-1.675-0.608-2.4s-0.949-1.301-1.632-1.728c-0.661-0.448-1.365-0.672-2.112-0.672-0.875 0-1.632 0.224-2.272 0.672-0.64 0.427-1.141 1.045-1.504 1.856-0.363 0.789-0.544 1.707-0.544 2.752z"></path>
<path d="M91.269 24.96c-1.621 0-3.061-0.384-4.32-1.152s-2.24-1.845-2.944-3.232c-0.683-1.387-1.024-2.976-1.024-4.768s0.341-3.381 1.024-4.768c0.704-1.387 1.685-2.464 2.944-3.232s2.699-1.152 4.32-1.152c1.387 0 2.645 0.373 3.776 1.12 1.152 0.725 2.037 1.717 2.656 2.976v-9.12h2.912v18.72c0 1.536 0.053 2.923 0.16 4.16h-3.072v-3.68c-0.597 1.259-1.472 2.261-2.624 3.008-1.131 0.747-2.4 1.12-3.808 1.12zM86.117 15.808c0 1.323 0.245 2.507 0.736 3.552 0.491 1.024 1.173 1.824 2.048 2.4s1.877 0.864 3.008 0.864c1.067 0 2.037-0.277 2.912-0.832 0.896-0.555 1.6-1.28 2.112-2.176 0.512-0.917 0.768-1.92 0.768-3.008v-1.6c0-1.088-0.267-2.091-0.8-3.008-0.512-0.917-1.216-1.643-2.112-2.176-0.875-0.555-1.835-0.832-2.88-0.832-1.131 0-2.133 0.288-3.008 0.864s-1.557 1.387-2.048 2.432c-0.491 1.024-0.736 2.197-0.736 3.52z"></path>
<path d="M112.473 24.96c-1.579 0-3.040-0.331-4.384-0.992s-2.421-1.643-3.232-2.944c-0.789-1.301-1.184-2.88-1.184-4.736s0.373-3.509 1.12-4.96c0.768-1.472 1.813-2.613 3.136-3.424 1.344-0.832 2.869-1.248 4.576-1.248 1.749 0 3.232 0.395 4.448 1.184s2.133 1.909 2.752 3.36c0.64 1.429 0.96 3.104 0.96 5.024h-15.552v-2.272h13.6l-1.056 0.928c0-1.131-0.203-2.144-0.608-3.040-0.405-0.917-1.003-1.632-1.792-2.144-0.768-0.512-1.685-0.768-2.752-0.768-1.152 0-2.165 0.299-3.040 0.896-0.853 0.576-1.525 1.419-2.016 2.528-0.491 1.088-0.736 2.357-0.736 3.808 0 1.472 0.267 2.699 0.8 3.68s1.237 1.707 2.112 2.176c0.875 0.448 1.835 0.672 2.88 0.672 1.515 0 2.773-0.395 3.776-1.184 1.024-0.789 1.76-1.781 2.208-2.976l2.432 1.696c-1.003 1.536-2.219 2.709-3.648 3.52s-3.029 1.216-4.8 1.216z"></path>
<path d="M130.924 24.96c-1.813 0-3.509-0.395-5.088-1.184-1.557-0.811-2.805-1.92-3.744-3.328l2.176-1.792c0.597 1.301 1.493 2.315 2.688 3.040 1.216 0.725 2.56 1.088 4.032 1.088 0.768 0 1.451-0.107 2.048-0.32 0.597-0.235 1.067-0.555 1.408-0.96 0.341-0.427 0.512-0.928 0.512-1.504 0-0.619-0.224-1.131-0.672-1.536-0.448-0.427-1.003-0.757-1.664-0.992-0.64-0.256-1.536-0.533-2.688-0.832-1.429-0.384-2.592-0.747-3.488-1.088-0.875-0.363-1.632-0.875-2.272-1.536-0.619-0.661-0.928-1.536-0.928-2.624 0-0.917 0.267-1.739 0.8-2.464s1.291-1.28 2.272-1.664c0.981-0.405 2.091-0.608 3.328-0.608 1.557 0 2.997 0.267 4.32 0.8 1.344 0.533 2.528 1.483 3.552 2.848l-2.176 1.792c-0.512-1.067-1.291-1.877-2.336-2.432s-2.176-0.832-3.392-0.832c-1.045 0-1.899 0.213-2.56 0.64-0.64 0.405-0.96 0.949-0.96 1.632 0 0.555 0.203 1.013 0.608 1.376 0.427 0.363 0.949 0.661 1.568 0.896 0.619 0.213 1.461 0.459 2.528 0.736 1.493 0.405 2.699 0.789 3.616 1.152 0.939 0.363 1.739 0.907 2.4 1.632 0.683 0.704 1.024 1.643 1.024 2.816 0 1.067-0.309 2.005-0.928 2.816-0.619 0.789-1.451 1.397-2.496 1.824-1.024 0.405-2.187 0.608-3.488 0.608z"></path>
<path d="M140.537 7.104h2.912v13.248c0 1.536 0.053 2.923 0.16 4.16h-3.072v-17.408zM140.345 1.376h3.296v3.104h-3.296v-3.104z"></path>
<path d="M152.469 31.2c-1.792 0-3.328-0.363-4.608-1.088s-1.92-1.792-1.92-3.2c0-0.789 0.277-1.493 0.832-2.112s1.301-1.141 2.24-1.568c0.939-0.448 2.059-0.832 3.36-1.152 0.256-0.064 0.48-0.117 0.672-0.16l0.384 0.512c-0.981 0.32-1.803 0.661-2.464 1.024-0.661 0.341-1.184 0.747-1.568 1.216s-0.576 1.024-0.576 1.664c0 0.896 0.395 1.557 1.184 1.984 0.811 0.427 1.813 0.64 3.008 0.64 1.28 0 2.528-0.192 3.744-0.576 1.237-0.384 2.24-0.928 3.008-1.632 0.768-0.683 1.152-1.472 1.152-2.368 0-0.619-0.213-1.099-0.64-1.44-0.426-0.363-1.045-0.544-1.856-0.544-0.512 0-1.067 0.064-1.664 0.192-0.576 0.107-1.365 0.288-2.368 0.544-0.832 0.235-1.525 0.416-2.080 0.544-0.555 0.107-1.045 0.16-1.472 0.16-0.768 0-1.483-0.107-2.144-0.32-0.64-0.235-1.163-0.565-1.568-0.992-0.384-0.448-0.576-0.971-0.576-1.568 0-0.896 0.448-1.685 1.344-2.368 0.896-0.704 2.101-1.259 3.616-1.664l0.608 0.8c-0.448 0.128-0.821 0.267-1.12 0.416-0.64 0.256-1.109 0.555-1.408 0.896-0.299 0.32-0.448 0.672-0.448 1.056 0 0.427 0.192 0.725 0.576 0.896s0.885 0.256 1.504 0.256c0.533 0 1.088-0.053 1.664-0.16 0.576-0.128 1.237-0.288 1.984-0.48 0.896-0.235 1.664-0.405 2.304-0.512 0.661-0.128 1.344-0.192 2.048-0.192 1.451 0 2.614 0.341 3.488 1.024 0.875 0.683 1.312 1.675 1.312 2.976 0 1.472-0.576 2.763-1.728 3.872-1.13 1.109-2.592 1.952-4.384 2.528-1.771 0.597-3.584 0.896-5.44 0.896zM154.197 18.688c-1.365 0-2.571-0.256-3.616-0.768-1.045-0.533-1.867-1.259-2.464-2.176-0.576-0.917-0.864-1.941-0.864-3.072s0.288-2.155 0.864-3.072c0.597-0.917 1.419-1.632 2.464-2.144 1.067-0.533 2.272-0.8 3.616-0.8 0.917 0 1.675 0.096 2.272 0.288s1.227 0.448 1.888 0.768c0.363 0.192 0.672 0.341 0.928 0.448 0.256 0.085 0.523 0.128 0.8 0.128 0.64 0 1.099-0.192 1.376-0.576 0.299-0.405 0.448-0.928 0.448-1.568l2.432 0.832c-0.021 0.853-0.352 1.504-0.992 1.952s-1.386 0.672-2.24 0.672c-0.213 0-0.501-0.021-0.864-0.064 0.619 0.896 0.928 1.941 0.928 3.136 0 1.131-0.288 2.155-0.864 3.072s-1.397 1.643-2.464 2.176c-1.067 0.512-2.283 0.768-3.648 0.768zM154.197 16.736c0.832 0 1.547-0.171 2.144-0.512 0.597-0.363 1.056-0.853 1.376-1.472 0.32-0.64 0.48-1.333 0.48-2.080 0-1.152-0.363-2.112-1.088-2.88-0.704-0.789-1.675-1.184-2.912-1.184-0.811 0-1.525 0.181-2.144 0.544-0.597 0.363-1.056 0.853-1.376 1.472-0.299 0.597-0.448 1.28-0.448 2.048 0 1.173 0.352 2.144 1.056 2.912 0.725 0.768 1.696 1.152 2.912 1.152z"></path>
<path d="M166.413 7.104h2.912v5.056c0.426-1.088 1.034-2.048 1.824-2.88 0.789-0.832 1.685-1.472 2.688-1.92 1.002-0.469 2.026-0.704 3.072-0.704 1.301 0 2.389 0.256 3.264 0.768 0.896 0.491 1.557 1.173 1.984 2.048 0.448 0.875 0.672 1.888 0.672 3.040v7.84c0 1.536 0.053 2.923 0.16 4.16h-3.072v-11.552c0-1.28-0.32-2.251-0.96-2.912-0.619-0.661-1.611-0.992-2.976-0.992-1.003 0-2.027 0.309-3.072 0.928-1.024 0.619-1.878 1.493-2.56 2.624-0.683 1.109-1.024 2.4-1.024 3.872v8.032h-2.912v-17.408z"></path>
</symbol>
</defs>
</svg>
